<?xml version="1.0" encoding="UTF-8"?>
<svg version="1.1" xmlns="http://www.w3.org/2000/svg" width="316" height="231">
<path d="M0 0 C22.65453565 17.36847733 37.56789159 41.74256869 41.4609375 70.19921875 C43.69101024 97.31112165 37.72037188 123.87325595 20.17578125 145.1484375 C19.2763132 146.1702147 18.37117542 147.18702393 17.4609375 148.19921875 C16.97641113 148.74271973 16.49188477 149.2862207 15.99267578 149.84619141 C5.51822547 161.39854936 -6.84871873 170.69528941 -21.5390625 176.19921875 C-22.68117187 176.64007813 -23.82328125 177.0809375 -25 177.53515625 C-50.12698078 186.63257549 -78.62558356 184.58644847 -102.75415039 173.49926758 C-126.63132678 161.91160369 -145.34619656 141.05593568 -154.5390625 116.19921875 C-163.76874946 89.35070889 -160.94409845 61.62785179 -149.1328125 36.16796875 C-137.18546926 13.06977183 -116.36962791 -5.70363236 -91.5390625 -13.80078125 C-59.8430453 -23.07794824 -27.33429086 -19.38632013 0 0 Z M-88.5390625 0.19921875 C-89.57417969 0.56144531 -90.60929687 0.92367187 -91.67578125 1.296875 C-112.93276752 9.32608236 -128.73709254 26.07966545 -138.5390625 46.19921875 C-147.06380973 66.37014843 -149.27737559 90.35117288 -141.5390625 111.19921875 C-137.7278427 120.52537077 -132.81380032 129.30519375 -126.5390625 137.19921875 C-125.59353516 138.40771484 -125.59353516 138.40771484 -124.62890625 139.640625 C-110.09692884 156.99751017 -88.91615313 166.95040443 -66.5390625 169.19921875 C-45.91497131 170.50251498 -25.29380301 165.5368004 -8.5390625 153.19921875 C-7.62640625 152.53148437 -6.71375 151.86375 -5.7734375 151.17578125 C11.7638727 137.60640995 24.08849318 117.48411931 27.21777344 95.43457031 C29.80501985 71.65060632 25.00984111 48.50285211 10.4609375 29.19921875 C-3.85729629 11.63612374 -22.8377329 -0.47319097 -45.5390625 -3.80078125 C-60.12076328 -4.65727749 -74.7473017 -5.09195992 -88.5390625 0.19921875 Z " fill="#1D2E4C" transform="translate(226.5390625,32.80078125)"/>
<path d="M0 0 C1.00611328 -0.00708984 2.01222656 -0.01417969 3.04882812 -0.02148438 C10.4183703 0.04251299 10.4183703 0.04251299 12.55975342 1.67181396 C14.33980825 3.95308833 14.30118566 5.21924918 14.27807617 8.0925293 C14.27773628 9.50365242 14.27773628 9.50365242 14.27738953 10.94328308 C14.26190567 11.95586685 14.24642181 12.96845062 14.23046875 14.01171875 C14.22622391 15.05068802 14.22197906 16.08965729 14.21760559 17.16011047 C14.20079849 20.48200276 14.16314196 23.80329075 14.125 27.125 C14.10995582 29.37564229 14.09626695 31.62629407 14.08398438 33.87695312 C14.05088836 39.39734197 14.00066869 44.91737782 13.9375 50.4375 C14.97390625 50.39109375 16.0103125 50.3446875 17.078125 50.296875 C18.44788779 50.25934725 19.81768182 50.22294816 21.1875 50.1875 C22.21037109 50.13722656 22.21037109 50.13722656 23.25390625 50.0859375 C26.71649403 50.01870279 28.57628142 50.16788231 31.38671875 52.265625 C32.9375 54.4375 32.9375 54.4375 33.5 57.4375 C32.9375 60.4375 32.9375 60.4375 30.98242188 62.59179688 C26.80265863 65.12539294 23.45626755 65.01418887 18.65625 64.96875 C17.76514526 64.9725769 16.87404053 64.97640381 15.95593262 64.98034668 C14.07656725 64.98306217 12.19716385 64.9757264 10.31787109 64.95898438 C7.44673127 64.93756886 4.57809356 64.95879761 1.70703125 64.984375 C-0.12240134 64.98173166 -1.95183237 64.97660655 -3.78125 64.96875 C-5.06424988 64.98089539 -5.06424988 64.98089539 -6.37316895 64.99328613 C-10.42269165 64.92980636 -12.57245018 64.73454752 -16.10742188 62.59179688 C-18.0625 60.4375 -18.0625 60.4375 -18.625 57.4375 C-18.0625 54.4375 -18.0625 54.4375 -14.0625 50.4375 C-9.1125 50.4375 -4.1625 50.4375 0.9375 50.4375 C0.9375 38.5575 0.9375 26.6775 0.9375 14.4375 C-2.3625 14.4375 -5.6625 14.4375 -9.0625 14.4375 C-11.54300929 13.27317931 -13.15675952 12.34324048 -15.0625 10.4375 C-15.42979851 7.13181343 -15.49128627 5.13869166 -13.734375 2.265625 C-9.44822699 -0.66700259 -5.06413056 -0.10095694 0 0 Z " fill="#1D2F4D" transform="translate(160.0625,101.5625)"/>
<path d="M0 0 C3.11390042 2.42192255 4.69287604 4.16895869 6.0625 7.875 C5.97419432 12.29028408 4.49156368 14.36943578 2 18 C-1.48339075 19.74169538 -5.19948216 19.5776262 -9 19 C-12.37882179 16.6066679 -13.67073608 14.96721278 -15 11.0625 C-15 7.15544281 -14.21495196 5.21525285 -12 2 C-7.76530991 -0.91723095 -4.9062711 -1.67021995 0 0 Z " fill="#1D2D4A" transform="translate(172,68)"/>
<path d="M0 0 C0.33 0 0.66 0 1 0 C1 15.51 1 31.02 1 47 C5.95 47 10.9 47 16 47 C20 51 20 51 20.5625 54 C20 57 20 57 18.25 59.375 C13.29290434 61.85354783 8.44231023 61.31247714 3 61 C3 60.67 3 60.34 3 60 C4.03060547 59.94392578 4.03060547 59.94392578 5.08203125 59.88671875 C5.98308594 59.82097656 6.88414062 59.75523437 7.8125 59.6875 C8.70582031 59.62949219 9.59914062 59.57148438 10.51953125 59.51171875 C13.35832661 58.9260775 14.29843679 58.31238077 16 56 C16.7269226 52.89160979 16.7269226 52.89160979 17 50 C13.43928688 48.95117609 9.94472103 48.69613047 6.25 48.4375 C5.07953125 48.35371094 3.9090625 48.26992187 2.703125 48.18359375 C1.81109375 48.12300781 0.9190625 48.06242187 0 48 C-0.16801189 41.48568186 -0.32794171 34.97120174 -0.48217773 28.45654297 C-0.53564069 26.23904904 -0.59097328 24.02159938 -0.64819336 21.80419922 C-0.72998452 18.62216745 -0.8051129 15.44003851 -0.87890625 12.2578125 C-0.90594131 11.26194122 -0.93297638 10.26606995 -0.96083069 9.24002075 C-0.98092697 8.31921722 -1.00102325 7.3984137 -1.02172852 6.44970703 C-1.04171402 5.6369632 -1.06169952 4.82421936 -1.08229065 3.98684692 C-1 2 -1 2 0 0 Z " fill="#212A40" transform="translate(173,105)"/>
<path d="M0 0 C-3.50074109 1.84249531 -6.98982346 3.40301883 -10.6875 4.8125 C-16.40187319 7.04780275 -21.6773888 9.96429019 -27 13 C-27 13.99 -27 14.98 -27 16 C-28.28913487 16.67154933 -29.58140204 17.33708859 -30.875 18 C-31.59429687 18.37125 -32.31359375 18.7425 -33.0546875 19.125 C-35 20 -35 20 -37 20 C-37 20.66 -37 21.32 -37 22 C-37.66 22 -38.32 22 -39 22 C-39 23.65 -39 25.3 -39 27 C-40.32 26.34 -41.64 25.68 -43 25 C-36.17966296 16.09567109 -12.58457472 -4.6609536 0 0 Z " fill="#1B283E" transform="translate(139,20)"/>
<path d="M0 0 C-2.83503876 1.89002584 -5.27120769 2.92239761 -8.4375 4.125 C-20.37582586 9.05009945 -29.93631781 16.93631781 -39 26 C-39 22 -39 22 -36.875 19.8515625 C-35.92625 19.11679687 -34.9775 18.38203125 -34 17.625 C-32.98550781 16.83609375 -31.97101563 16.0471875 -30.92578125 15.234375 C-29.96027344 14.49703125 -28.99476562 13.7596875 -28 13 C-27.33355469 12.44828125 -26.66710937 11.8965625 -25.98046875 11.328125 C-18.91057325 5.59827506 -9.31798174 -0.70805332 0 0 Z " fill="#1A2638" transform="translate(141,32)"/>
<path d="M0 0 C1.5028388 3.00567761 1.13164543 5.78234702 1.125 9.125 C1.12318726 10.13953247 1.12318726 10.13953247 1.12133789 11.17456055 C1.09333822 14.76067207 0.94284145 18.26198406 0.4375 21.8125 C-0.29048644 24.88959705 -0.29048644 24.88959705 1 27 C0.34 27 -0.32 27 -1 27 C-1.33 29.97 -1.66 32.94 -2 36 C-3.485 36.495 -3.485 36.495 -5 37 C-4.69255859 35.48986328 -4.69255859 35.48986328 -4.37890625 33.94921875 C-2.62795784 24.945578 -1.59643369 16.15527674 -1.29125977 6.9831543 C-1.08775691 1.08775691 -1.08775691 1.08775691 0 0 Z " fill="#212840" transform="translate(255,106)"/>
<path d="M0 0 C0.66 0 1.32 0 2 0 C1.36111113 5.06040549 -0.86279277 9.28011534 -3.0625 13.8125 C-3.62807617 14.99489258 -3.62807617 14.99489258 -4.20507812 16.20117188 C-5.13170161 18.13652473 -6.06517467 20.06859549 -7 22 C-7.99 22 -8.98 22 -10 22 C-9.75 19.1875 -9.75 19.1875 -9 16 C-8.38125 15.5771875 -7.7625 15.154375 -7.125 14.71875 C-4.18094934 12.33753255 -3.51049738 9.84889542 -2.25 6.3125 C-1.82203125 5.13300781 -1.3940625 3.95351562 -0.953125 2.73828125 C-0.63859375 1.83464844 -0.3240625 0.93101562 0 0 Z " fill="#1A263B" transform="translate(261,146)"/>
<path d="M0 0 C1.03125 0.01804687 2.0625 0.03609375 3.125 0.0546875 C5.66761064 0.10177288 8.20833162 0.1675195 10.75 0.25 C10.75 0.91 10.75 1.57 10.75 2.25 C8.1874282 2.27710123 5.62514635 2.29688771 3.0625 2.3125 C1.9806543 2.32506836 1.9806543 2.32506836 0.87695312 2.33789062 C-2.96555382 2.35543632 -6.51639526 2.18524221 -10.25 1.25 C-10.518125 2.178125 -10.78625 3.10625 -11.0625 4.0625 C-12.16148371 7.01240366 -12.87418561 8.30615186 -15.25 10.25 C-15.5473933 6.97867371 -15.65157663 4.91929439 -13.9375 2.0625 C-9.59803991 -0.86411262 -5.09789245 -0.16820457 0 0 Z " fill="#232D42" transform="translate(160.25,101.75)"/>
<path d="M0 0 C2.97 0.495 2.97 0.495 6 1 C2.7106702 4.6695036 -0.87442777 6.88370205 -5.125 9.25 C-5.75792969 9.61351562 -6.39085937 9.97703125 -7.04296875 10.3515625 C-11.7324953 13 -11.7324953 13 -14 13 C-14 12.34 -14 11.68 -14 11 C-12.35 10.67 -10.7 10.34 -9 10 C-9 9.34 -9 8.68 -9 8 C-8.05125 7.54625 -7.1025 7.0925 -6.125 6.625 C-2.99686321 5.19761746 -2.99686321 5.19761746 -1 3 C-0.34 3.33 0.32 3.66 1 4 C0.67 2.68 0.34 1.36 0 0 Z " fill="#19253B" transform="translate(222,194)"/>
<path d="M0 0 C1 3 1 3 -0.109375 5.234375 C-0.65078125 6.06453125 -1.1921875 6.8946875 -1.75 7.75 C-4.27325776 11.75200417 -6.27848441 15.60057126 -8 20 C-9.32 19.34 -10.64 18.68 -12 18 C-11.01 17.34 -10.02 16.68 -9 16 C-8.30683858 14.08555416 -7.61749253 12.1694942 -6.9609375 10.2421875 C-5.30274026 6.37306061 -2.65700065 3.23311406 0 0 Z " fill="#1D293F" transform="translate(95,64)"/>
<path d="M0 0 C2.73251686 3.27098341 4.21683758 6.59882422 5.75 10.5625 C6.42289062 12.26599609 6.42289062 12.26599609 7.109375 14.00390625 C8 17 8 17 7 20 C6.81824219 19.45730469 6.63648438 18.91460937 6.44921875 18.35546875 C6.19785156 17.64003906 5.94648438 16.92460938 5.6875 16.1875 C5.44386719 15.47980469 5.20023437 14.77210937 4.94921875 14.04296875 C4.12296623 11.93302238 4.12296623 11.93302238 2.4375 10.53125 C0.52688644 8.49603121 0.51170227 7.06149132 0.3125 4.3125 C0.24675781 3.50425781 0.18101562 2.69601563 0.11328125 1.86328125 C0.07589844 1.24839844 0.03851563 0.63351563 0 0 Z " fill="#202B3F" transform="translate(256,68)"/>
<path d="M0 0 C7.36072234 0.42465706 13.32137824 2.98348917 20 6 C16.84818454 7.04128715 15.22464751 6.9926693 12.1875 5.6875 C9.49520406 4.5783144 6.88421607 3.65744402 4.0625 2.9375 C3.051875 2.628125 2.04125 2.31875 1 2 C0.67 1.34 0.34 0.68 0 0 Z " fill="#1D273E" transform="translate(192,18)"/>
<path d="M0 0 C0.99 0.33 1.98 0.66 3 1 C2 3 2 3 0.0625 4.875 C-1.90424164 6.90133987 -2.78996823 8.49926768 -4 11 C-5.4375 12.5625 -5.4375 12.5625 -7 14 C-7.556875 14.556875 -8.11375 15.11375 -8.6875 15.6875 C-9.120625 16.120625 -9.55375 16.55375 -10 17 C-8.68018255 12.31812124 -6.80204328 8.99625079 -3.875 5.125 C-3.15054688 4.15820312 -2.42609375 3.19140625 -1.6796875 2.1953125 C-1.12539062 1.47085938 -0.57109375 0.74640625 0 0 Z " fill="#1E2A3D" transform="translate(88,53)"/>
<path d="M0 0 C0.33 0.66 0.66 1.32 1 2 C0.67 2.66 0.34 3.32 0 4 C0.66 4.33 1.32 4.66 2 5 C1.01 5 0.02 5 -1 5 C-1.33 5.66 -1.66 6.32 -2 7 C-3.8125 8.1875 -3.8125 8.1875 -6 9 C-7.32 8.67 -8.64 8.34 -10 8 C-6.7 5.36 -3.4 2.72 0 0 Z " fill="#19293F" transform="translate(228,177)"/>
<path d="M0 0 C1.32 0.33 2.64 0.66 4 1 C2.73548068 2.31858428 1.46314525 3.62967631 0.1875 4.9375 C-0.52019531 5.66839844 -1.22789062 6.39929688 -1.95703125 7.15234375 C-4 9 -4 9 -7 10 C-7.66 9.34 -8.32 8.68 -9 8 C-6.69 6.68 -4.38 5.36 -2 4 C-2 3.34 -2 2.68 -2 2 C-1.34 2 -0.68 2 0 2 C0 1.34 0 0.68 0 0 Z " fill="#19273D" transform="translate(235,185)"/>
<path d="M0 0 C3.58806317 3.38872633 6.45684799 6.76141332 9 11 C9 11.66 9 12.32 9 13 C8.01 13.33 7.02 13.66 6 14 C5.34 13.34 4.68 12.68 4 12 C4.66 12 5.32 12 6 12 C5.566875 11.30132812 5.13375 10.60265625 4.6875 9.8828125 C4.130625 8.97273438 3.57375 8.06265625 3 7.125 C2.443125 6.22007813 1.88625 5.31515625 1.3125 4.3828125 C0 2 0 2 0 0 Z " fill="#1D2740" transform="translate(246,53)"/>
<path d="M0 0 C3.98042168 0.58809834 6.86247219 1.82031677 10.3125 3.875 C11.19550781 4.38804688 12.07851562 4.90109375 12.98828125 5.4296875 C13.65214844 5.94789062 14.31601563 6.46609375 15 7 C15 7.99 15 8.98 15 10 C12.49732313 8.52520827 9.99783579 7.04544936 7.5 5.5625 C6.78457031 5.14162109 6.06914062 4.72074219 5.33203125 4.28710938 C3.53787459 3.21915898 1.76678262 2.11265239 0 1 C0 0.67 0 0.34 0 0 Z " fill="#1B273B" transform="translate(205,36)"/>
<path d="M0 0 C0.66 0.33 1.32 0.66 2 1 C2.4140625 3.28515625 2.4140625 3.28515625 2.625 6.0625 C2.69976562 6.98160156 2.77453125 7.90070313 2.8515625 8.84765625 C2.92503906 9.91306641 2.92503906 9.91306641 3 11 C3.66 11 4.32 11 5 11 C5 11.66 5 12.32 5 13 C2 12 2 12 0.25 9.3125 C-1.14124787 5.62569316 -0.98410592 3.75749535 0 0 Z " fill="#22293D" transform="translate(158,73)"/>
<path d="M0 0 C1.98 0.66 3.96 1.32 6 2 C6 2.66 6 3.32 6 4 C6.5775 4.28875 7.155 4.5775 7.75 4.875 C9.83333333 5.91666667 11.91666667 6.95833333 14 8 C14 8.66 14 9.32 14 10 C10.19136032 8.65378455 7.34590149 6.94641263 4.1875 4.4375 C3.39730469 3.81746094 2.60710937 3.19742188 1.79296875 2.55859375 C0.90544922 1.78708984 0.90544922 1.78708984 0 1 C0 0.67 0 0.34 0 0 Z " fill="#1E273C" transform="translate(102,191)"/>
<path d="M0 0 C1.15224028 0.92961422 2.29659176 1.8690125 3.4375 2.8125 C4.07558594 3.33457031 4.71367187 3.85664062 5.37109375 4.39453125 C7 6 7 6 8 9 C6.02 9.99 6.02 9.99 4 11 C3.855625 10.236875 3.71125 9.47375 3.5625 8.6875 C3.0367406 5.91827092 3.0367406 5.91827092 2 3 C1.34 3 0.68 3 0 3 C0 2.01 0 1.02 0 0 Z " fill="#1D2840" transform="translate(238,44)"/>
<path d="M0 0 C2.6815279 3.07692746 3.42087807 5.19734663 3.6875 9.25 C3.75324219 10.14203125 3.81898437 11.0340625 3.88671875 11.953125 C3.92410156 12.62859375 3.96148437 13.3040625 4 14 C2.39061535 11.58592302 1.34509262 9.65955563 0.3125 7 C0.04050781 6.319375 -0.23148437 5.63875 -0.51171875 4.9375 C-1 3 -1 3 0 0 Z " fill="#1D293D" transform="translate(72,142)"/>
<path d="M0 0 C2 2 2 2 2 4 C2.165 5.155 2.33 6.31 2.5 7.5 C3 11 3 11 3 13 C2.34 13 1.68 13 1 13 C-1.42857143 4.57142857 -1.42857143 4.57142857 0 0 Z " fill="#1D2B3E" transform="translate(69,129)"/>
<path d="M0 0 C4.03164412 2.01582206 5.60857906 3.28001188 8 7 C7.67 8.32 7.34 9.64 7 11 C4.69 7.37 2.38 3.74 0 0 Z " fill="#1E283D" transform="translate(80,165)"/>
<path d="M0 0 C1.65 0.33 3.3 0.66 5 1 C4.67 1.66 4.34 2.32 4 3 C3.34 3 2.68 3 2 3 C1.67 3.66 1.34 4.32 1 5 C0.34 4.67 -0.32 4.34 -1 4 C-0.34 5.98 0.32 7.96 1 10 C0.01 9.67 -0.98 9.34 -2 9 C-2.25 3.375 -2.25 3.375 0 0 Z " fill="#1C293F" transform="translate(144,153)"/>
<path d="M0 0 C3.59391114 1.33488128 6.75490696 2.96022723 10 5 C9.67 6.32 9.34 7.64 9 9 C7.49704815 7.69088122 5.99770689 6.37761608 4.5 5.0625 C3.6646875 4.33160156 2.829375 3.60070313 1.96875 2.84765625 C1.3190625 2.23792969 0.669375 1.62820312 0 1 C0 0.67 0 0.34 0 0 Z " fill="#1E283B" transform="translate(222,47)"/>
<path d="M0 0 C5.94 3.465 5.94 3.465 12 7 C9 8 9 8 6.73828125 7.00390625 C5.93777344 6.52824219 5.13726562 6.05257812 4.3125 5.5625 C3.50425781 5.08941406 2.69601563 4.61632812 1.86328125 4.12890625 C1.24839844 3.75636719 0.63351563 3.38382813 0 3 C0 2.01 0 1.02 0 0 Z " fill="#18273B" transform="translate(116,185)"/>
<path d="M0 0 C-1 2 -1 2 -3.06640625 2.8515625 C-4.30197266 3.23441406 -4.30197266 3.23441406 -5.5625 3.625 C-6.38878906 3.88539062 -7.21507812 4.14578125 -8.06640625 4.4140625 C-8.70449219 4.60742188 -9.34257812 4.80078125 -10 5 C-8.3046875 1.1640625 -8.3046875 1.1640625 -5.5625 -0.3125 C-3 -1 -3 -1 0 0 Z " fill="#1B253B" transform="translate(169,68)"/>
<path d="M0 0 C4.61513112 1.31860889 8.09897612 3.21355437 12 6 C9 7 9 7 5.4375 5.25 C2.66591829 3.65261528 1.86881304 2.80321956 0 0 Z " fill="#1A2536" transform="translate(212,25)"/>
<path d="M0 0 C2.64 1.98 5.28 3.96 8 6 C7.67 6.66 7.34 7.32 7 8 C3.64379729 6.61122646 1.92701272 5.08322035 0 2 C0 1.34 0 0.68 0 0 Z " fill="#19293D" transform="translate(103,174)"/>
<path d="M0 0 C-1.43344 0.53190541 -2.87195367 1.05015258 -4.3125 1.5625 C-5.51326172 1.99755859 -5.51326172 1.99755859 -6.73828125 2.44140625 C-9 3 -9 3 -12 2 C-7.60930911 -0.35215584 -4.84930578 -1.34366181 0 0 Z " fill="#1A2538" transform="translate(208,208)"/>
<path d="M0 0 C2.475 0.99 2.475 0.99 5 2 C1.86501708 3.85776765 -0.37471432 4.20140476 -4 4 C-2.68 2.68 -1.36 1.36 0 0 Z " fill="#1B2B42" transform="translate(152,26)"/>
</svg>
